#define xmbtr_width 30
#define xmbtr_height 45
static char xmbtr_bits[] = {
   0xff, 0xff, 0x01, 0x00, 0x01, 0x00, 0x01, 0x00, 0xfd, 0x7f, 0x01, 0x00,
   0x05, 0x40, 0x01, 0x00, 0xf5, 0x5f, 0x81, 0x00, 0xf5, 0x5f, 0x81, 0x00,
   0x15, 0x50, 0x81, 0x00, 0x05, 0x40, 0x81, 0x00, 0x25, 0x48, 0xf1, 0x07,
   0xe5, 0x4f, 0x81, 0x00, 0xe5, 0x4f, 0x81, 0x00, 0x25, 0x48, 0x81, 0x00,
   0x05, 0x40, 0x81, 0x00, 0x15, 0x50, 0x81, 0x00, 0xf5, 0x5f, 0x01, 0x00,
   0xf5, 0x5f, 0x01, 0x00, 0x05, 0xe0, 0x03, 0x00, 0xfd, 0x1f, 0x1c, 0x00,
   0x01, 0x83, 0x60, 0x00, 0xff, 0xc0, 0x81, 0x01, 0x20, 0x82, 0x20, 0x02,
   0x10, 0x80, 0x00, 0x04, 0x10, 0x80, 0x00, 0x04, 0x08, 0x80, 0x00, 0x08,
   0x28, 0x80, 0x00, 0x0a, 0x04, 0x80, 0x00, 0x10, 0x04, 0x80, 0x00, 0x10,
   0x04, 0x80, 0x00, 0x10, 0x02, 0x80, 0x00, 0x20, 0x02, 0x81, 0x00, 0x20,
   0x8a, 0xff, 0x01, 0x28, 0x02, 0x81, 0x00, 0x20, 0x02, 0x00, 0x00, 0x20,
   0x04, 0x00, 0x00, 0x10, 0x04, 0x00, 0x00, 0x10, 0x04, 0x00, 0x00, 0x10,
   0x28, 0x00, 0x00, 0x0a, 0x08, 0x00, 0x00, 0x08, 0x10, 0x00, 0x00, 0x04,
   0x10, 0x00, 0x00, 0x04, 0x20, 0x02, 0x20, 0x02, 0xc0, 0x00, 0x80, 0x01,
   0x00, 0x83, 0x60, 0x00, 0x00, 0x1c, 0x1c, 0x00, 0x00, 0xe0, 0x03, 0x20};
