#define xmbtqdoc_width 30
#define xmbtqdoc_height 45
static char xmbtqdoc_bits[] = {
   0xff, 0xff, 0x01, 0x00, 0x01, 0x00, 0x01, 0x00, 0xfd, 0x7f, 0x81, 0x03,
   0x05, 0x40, 0x61, 0x0d, 0xf5, 0x5f, 0x11, 0x11, 0xf5, 0x5f, 0x11, 0x11,
   0x15, 0x50, 0x09, 0x21, 0x05, 0x40, 0xe9, 0x23, 0x25, 0x48, 0x09, 0x21,
   0xe5, 0x4f, 0x11, 0x10, 0xe5, 0x4f, 0x11, 0x10, 0x25, 0x48, 0x61, 0x0c,
   0x05, 0x40, 0x81, 0x03, 0x15, 0x50, 0x01, 0x00, 0xf5, 0x5f, 0x01, 0x00,
   0x15, 0x00, 0x00, 0x00, 0x05, 0xfe, 0xff, 0x3f, 0x7d, 0x01, 0x00, 0x20,
   0x81, 0x00, 0x00, 0x20, 0x5f, 0x3e, 0xe7, 0x21, 0x40, 0x90, 0x28, 0x22,
   0x40, 0x90, 0x28, 0x22, 0x40, 0x90, 0xa8, 0x21, 0x40, 0x90, 0x28, 0x22,
   0x40, 0x92, 0x28, 0x22, 0x40, 0x0c, 0xe7, 0x21, 0x40, 0x00, 0x00, 0x20,
   0x40, 0x00, 0x00, 0x20, 0x40, 0xfe, 0x00, 0x20, 0x40, 0x00, 0x00, 0x20,
   0x40, 0xf0, 0x7f, 0x20, 0x40, 0x00, 0x00, 0x20, 0x40, 0xc0, 0xff, 0x20,
   0x40, 0x00, 0x00, 0x20, 0x40, 0xc0, 0xff, 0x20, 0x40, 0x00, 0x00, 0x20,
   0x40, 0x00, 0xf8, 0x21, 0x40, 0x00, 0x00, 0x20, 0x40, 0xc0, 0x1f, 0x20,
   0x40, 0x00, 0x00, 0x18, 0x40, 0xf0, 0x01, 0x04, 0x40, 0x00, 0x00, 0x03,
   0x40, 0x04, 0xc0, 0x00, 0x40, 0x00, 0x30, 0x00, 0xc0, 0xff, 0x0f, 0x00};
