/* XPM */
static char * xbtqsel_xpm[] = {
"30 45 41 1",
"       c None",
".      c #2DEA14",
"+      c #E7EC95",
"@      c #000000",
"#      c #E3C4DB",
"$      c #EAEADC",
"%      c #EAE8DA",
"&      c #F0A198",
"*      c #F75451",
"=      c #FB2C2C",
"-      c #FB2626",
";      c #F84946",
">      c #EFACA2",
",      c #EBD4C7",
"'      c #FB2323",
")      c #F65F5A",
"!      c #F1968E",
"~      c #F29088",
"{      c #F93B3A",
"]      c #EEB7AD",
"^      c #EADFD1",
"/      c #EDC5B9",
"(      c #ECCDC1",
"_      c #FC2222",
":      c #F4716B",
"<      c #EBD7CB",
"[      c #EAE7D9",
"}      c #F6625D",
"|      c #EDBEB3",
"1      c #F56762",
"2      c #F1948C",
"3      c #F28780",
"4      c #F1928B",
"5      c #FA3433",
"6      c #F7534F",
"7      c #FB2222",
"8      c #F6635E",
"9      c #F65F5B",
"0      c #F28D85",
"a      c #ECCABE",
"b      c #EBD5C9",
".................+++++++++++++",
".+++++++++++++++.+++++++++++++",
".+.............+.++++++@@@++++",
".+.+++++++++++.+.++++@@#@#@@++",
".+.+.........+.+.+++@###@###@+",
".+.+.........+.+.+++@###@###@+",
".+.+.+++++++.+.+.++@####@####@",
".+.+++++++++++.+.++@#@@@@@###@",
".+.++.+++++.++.+.++@####@####@",
".+.++.......++.+.+++@#######@+",
".+.++.......++.+.+++@#######@+",
".+.++.+++++.++.+.++++@@###@@++",
".+.+++++++++++.+.++++++@@@++++",
".+.+.+++++++.+.+.+++++++++++++",
".+.+.........+.+.+++++++++++++",
".+.+.+++++++++++++++++++++++++",
".+.++++++@@@@@@@@@@@@@@@@@@@@@",
".+.....+@$$$$$$$$$$$$$$$$$$$$@",
".++++++@$$$$$$$$$$$$$$$$$$$$$@",
".....+@$$$$$$$$$$$$$$$$$$$$$$@",
"++++++@$$$$$$$$$$$$$$$$$$$$$$@",
"++++++@$$$$$$$$$$$$$$$$$$$$$$@",
"++++++@$$$$$$$$$$$$$$$$$$$$$$@",
"++++++@$$$$$$$$$$$$$$$$$$$$$$@",
"++++++@$$$$$$$$$$$$$$$$$$$$$$@",
"++++++@$$%&*=-;>$$%&*=-;>$$$$@",
"++++++@$$,')!~{']$,')!~{']$$$@",
"++++++@$$^/$$$(_:$^/$$$(_:$$$@",
"++++++@$$$$$$$<_:$$$$$$<_:$$$@",
"++++++@$$$$$$[}'|$$$$$[}'|$$$@",
"++++++@$$$$$%1_2$$$$$%1_2$$$$@",
"++++++@$$$$$3_4$$$$$$3_4$$$$$@",
"++++++@$$$$$56$$$$$$$56$$$$$$@",
"++++++@$$$$$78$$$$$$$78$$$$$$@",
"++++++@$$$$$90$$$$$$$90$$$$$$@",
"++++++@$$$$$ab$$$$$$$ab$$$$$$@",
"++++++@$$$$$_8$$$$$$$_8$$$$$$@",
"++++++@$$$$$_8$$$$$$$_8$$$$$$@",
"++++++@$$$$$$$$$$$$$$$$$$$$$$@",
"++++++@$$$$$$$$$$$$$$$$$$$$@@+",
"++++++@$$$$$$$$$$$$$$$$$$$@+++",
"++++++@$$$$$$$$$$$$$$$$$@@++++",
"++++++@$$$$$$$$$$$$$$$@@++++++",
"++++++@$$$$$$$$$$$$$@@++++++++",
"++++++@@@@@@@@@@@@@@++++++++++"};
