/* XPM */
static char * xbtqdoc_xpm[] = {
"30 45 6 1",
"       c None",
".      c #2DEA14",
"+      c #E7EC95",
"@      c #000000",
"#      c #E3C4DB",
"$      c #EAEADC",
".................+++++++++++++",
".+++++++++++++++.+++++++++++++",
".+.............+.++++++@@@++++",
".+.+++++++++++.+.++++@@#@#@@++",
".+.+.........+.+.+++@###@###@+",
".+.+.........+.+.+++@###@###@+",
".+.+.+++++++.+.+.++@####@####@",
".+.+++++++++++.+.++@#@@@@@###@",
".+.++.+++++.++.+.++@####@####@",
".+.++.......++.+.+++@#######@+",
".+.++.......++.+.+++@#######@+",
".+.++.+++++.++.+.++++@@###@@++",
".+.+++++++++++.+.++++++@@@++++",
".+.+.+++++++.+.+.+++++++++++++",
".+.+.........+.+.+++++++++++++",
".+.+.+++++++++++++++++++++++++",
".+.++++++@@@@@@@@@@@@@@@@@@@@@",
".+.....+@$$$$$$$$$$$$$$$$$$$$@",
".++++++@$$$$$$$$$$$$$$$$$$$$$@",
".....+@$$@@@@@$$@@@$$@@@@$$$$@",
"++++++@$$$$$@$$@$$$@$@$$$@$$$@",
"++++++@$$$$$@$$@$$$@$@$$$@$$$@",
"++++++@$$$$$@$$@$$$@$@$@@$$$$@",
"++++++@$$$$$@$$@$$$@$@$$$@$$$@",
"++++++@$$@$$@$$@$$$@$@$$$@$$$@",
"++++++@$$$@@$$$$@@@$$@@@@$$$$@",
"++++++@$$$$$$$$$$$$$$$$$$$$$$@",
"++++++@$$$$$$$$$$$$$$$$$$$$$$@",
"++++++@$$@@@@@@@$$$$$$$$$$$$$@",
"++++++@$$$$$$$$$$$$$$$$$$$$$$@",
"++++++@$$$$$@@@@@@@@@@@$$$$$$@",
"++++++@$$$$$$$$$$$$$$$$$$$$$$@",
"++++++@$$$$$$$@@@@@@@@@@$$$$$@",
"++++++@$$$$$$$$$$$$$$$$$$$$$$@",
"++++++@$$$$$$$@@@@@@@@@@$$$$$@",
"++++++@$$$$$$$$$$$$$$$$$$$$$$@",
"++++++@$$$$$$$$$$$$@@@@@@$$$$@",
"++++++@$$$$$$$$$$$$$$$$$$$$$$@",
"++++++@$$$$$$$@@@@@@@$$$$$$$$@",
"++++++@$$$$$$$$$$$$$$$$$$$$@@+",
"++++++@$$$$$@@@@@$$$$$$$$$@+++",
"++++++@$$$$$$$$$$$$$$$$$@@++++",
"++++++@$$$@$$$$$$$$$$$@@++++++",
"++++++@$$$$$$$$$$$$$@@++++++++",
"++++++@@@@@@@@@@@@@@++++++++++"};
