/* XPM */
static char * xbtr_xpm[] = {
"30 45 6 1",
"       c None",
".      c #2DEA14",
"+      c #E7EC95",
"@      c #F7A47C",
"#      c #E3C4DB",
"$      c #000000",
".................+++++++++++++",
".+++++++++++++++.+++++++++++++",
".+.............+.+++++++++++++",
".+.+++++++++++.+.+++++++++++++",
".+.+.........+.+.++++++@++++++",
".+.+.........+.+.++++++@++++++",
".+.+.+++++++.+.+.++++++@++++++",
".+.+++++++++++.+.++++++@++++++",
".+.++.+++++.++.+.+++@@@@@@@+++",
".+.++.......++.+.++++++@++++++",
".+.++.......++.+.++++++@++++++",
".+.++.+++++.++.+.++++++@++++++",
".+.+++++++++++.+.++++++@++++++",
".+.+.+++++++.+.+.++++++@++++++",
".+.+.........+.+.+++++++++++++",
".+.+.........+.+.+++++++++++++",
".+.++++++++++.....++++++++++++",
".+...........#####$$$+++++++++",
".+++++++..#####$#####$$+++++++",
"........######$$$######$$+++++",
"+++++.###$#####$#####$###$++++",
"++++$##########$##########$+++",
"++++$##########$##########$+++",
"+++$###########$###########$++",
"+++$#$#########$#########$#$++",
"++$############$############$+",
"++$############$############$+",
"++$############$############$+",
"+$#############$#############$",
"+$######$######$#############$",
"+$#$###$$$$$$$$$$##########$#$",
"+$######$######$#############$",
"+$###########################$",
"++$#########################$+",
"++$#########################$+",
"++$#########################$+",
"+++$#$###################$#$++",
"+++$#######################$++",
"++++$#####################$+++",
"++++$#####################$+++",
"+++++$###$###########$###$++++",
"++++++$$###############$$+++++",
"++++++++$$#####$#####$$+++++++",
"++++++++++$$$#####$$$+++++++++",
"+++++++++++++$$$$$+++++++++++$"};
