/* XPM */
static char * xbtuser_xpm[] = {
"30 45 9 1",
"       c None",
".      c #2DEA14",
"+      c #E7EC95",
"@      c #000000",
"#      c #E3C4DB",
"$      c #807921",
"%      c #EDDBD3",
"&      c #EB9197",
"*      c #C4E3E1",
".................+++++++++++++",
".+++++++++++++++.++++++@@@++++",
".+.............+.++++@@#@#@@++",
".+.+++++++++++.+.+++@###@###@+",
".+.+.........+.+.+++@###@###@+",
".+.+.........+.+.++@####@####@",
".+.+.+++++++.+.+.++@#@@@@@###@",
".+.+++++++++++.+.++@####@####@",
".+.++.+++++.++.+.+++@#######@+",
".+.++.......++.+.+++@#######@+",
".+.++.......++.+.++++@@###@@++",
".+.++.+++++.++.+.++++++@@@++++",
".+.+++++++++++++++++++++++++++",
".+.+.++++++++$$$$$$$++++++++++",
".+.+.....++$$$$$$$$$$$++++++++",
".+.+....++$$$$$$$$$$$$$$++++++",
".+.++++++$$$$$$$$$$$$$$$$+++++",
".+.....+$$$$$%$$$$$$$$$$$$++++",
".+++++++$$$$%%%$$$$$$$$$$$++++",
"......+$$$$%%%%$%$$$$$$$$$$+++",
"+++++++$$$%%%%%%%$$$$$$$$$$+++",
"++++++++$$%%%%%%%%$%$%$$$$$+++",
"++++++$$$%%%%%%%%%%%%%%%$$$$++",
"++++++$%$%%@@@@%%%@@@@%%%$%$++",
"++++++$%%%@%%%%@%%%%%%@%%%%$++",
"++++++$%%%%%@%%@%%%%@%%%%%%$++",
"++++++$%%%%%%%%@%%%%%%%%%%%$++",
"++++++$%%%%%%%@%%%%%%%%%%%%$++",
"+++++++@%%%%%%@%%%%%%%%%%%@+++",
"++++++++@%%%%%%%%%%%%%%%%@++++",
"++++++++@%%%%%%@%@%%%%%%%@++++",
"++++++++@%%%%%%%%%%%%%%%%@++++",
"++++++++@%%%%%%%%%%%%%%%%@++++",
"++++++++@%%%%&%%%%%%&%%%%@++++",
"+++++++++@%%%%&&&&&&%%%%@+++++",
"+++++++++@%%%%%%%%%%%%%%@+++++",
"++++++++++@%%%%%%%%%%%%@++++++",
"++++++++++@%%%%%%%%%%%%@++++++",
"+++++++++++@%%%%%%%%%%@+++++++",
"++++++++++++@%%%%%%%%@++++++++",
"+++++++++++++@%%%%%%@+++++++++",
"+++++++++++@@@@%%%%@@+++++++++",
"+++++++++@@@***@@@@**@@@++++++",
"+++++++@@@@@@***@***@@@@@@@+++",
"++++++@@@@@@@@*@@@*@@@@@@@@@@+"};
